Coordinates
version=1
nRows=14
nColumns=32
inDegrees=yes

Units are S.I. units (second, meters, Newtons, ...)
If the header above contains a line with 'inDegrees', this indicates whether rotational values are in degrees (yes) or radians (no).

endheader
time	pelvis_tilt	pelvis_list	pelvis_rotation	pelvis_tx	pelvis_ty	pelvis_tz	hip_flexion_r	hip_adduction_r	hip_rotation_r	knee_angle_r	knee_adduction_r	med_cond_adduction_r	lat_cond_adduction_r	patella_r_constrained_knee_angle	ankle_angle_r	subtalar_angle_r	mtp_angle_r	hip_flexion_l	hip_adduction_l	hip_rotation_l	knee_angle_l	knee_adduction_l	med_cond_adduction_l	lat_cond_adduction_l	patella_l_constrained_knee_angle	ankle_angle_l	subtalar_angle_l	mtp_angle_l	lumbar_extension	lumbar_bending	lumbar_rotation
      0.44583333	     -0.04201377	     -0.04086152	     90.86827258	      0.44490411	      1.08993188	     -1.37925425	    -29.80059691	    -10.48836228	    -39.95956817	    -37.09255673	      0.00000000	      0.00000000	     -0.00000000	     -0.64738724	    -39.89927589	    -19.81824464	     -0.00000000	     13.02940477	      0.57363758	    -11.42876319	     -8.24149368	     -0.00000000	     -0.00000000	      0.00000000	     -0.14384120	     -3.83229724	     19.52928444	     -0.00000000	      0.00000000	      0.00000000	      0.00000000
      0.45000000	     -0.14361896	      0.00854247	     91.59830996	      0.44319080	      1.08734462	     -1.39490795	    -29.83236827	    -10.54318311	    -39.95869769	    -38.57531502	     -0.00000000	     -0.00000000	      0.00000000	     -0.67326626	    -39.89550559	    -19.83734098	      0.00000000	     12.60005086	      0.94844901	    -10.64626088	     -8.50204058	     -0.00000000	     -0.00000000	      0.00000000	     -0.14838860	     -4.72795979	     19.49323479	      0.00000000	      0.00000000	      0.00000000	      0.00000000
      0.45416667	     -0.28933927	      0.07011938	     92.26736489	      0.44153462	      1.08461079	     -1.41063299	    -29.85347149	    -10.67809167	    -39.95735809	    -40.07617546	     -0.00000000	     -0.00000000	      0.00000000	     -0.69946121	    -39.89106570	    -19.85231540	      0.00000000	     12.12450675	      1.34004537	    -10.01323937	     -8.82321136	     -0.00000000	     -0.00000000	      0.00000000	     -0.15399409	     -5.88457322	     19.41742491	     -0.00000000	      0.00000000	      0.00000000	      0.00000000
      0.45833333	     -0.50337034	      0.14981079	     92.88473124	      0.43986244	      1.08172241	     -1.42640141	    -29.87074431	    -10.91016584	    -39.95578438	    -41.62868001	      0.00000000	      0.00000000	     -0.00000000	     -0.72655753	    -39.88635564	    -19.86394327	     -0.00000000	     11.60051229	      1.81137132	     -9.55631359	     -9.26817589	     -0.00000000	      0.00000000	     -0.00000000	     -0.16176018	     -6.31937607	     19.24662316	      0.00000000	      0.00000000	      0.00000000	      0.00000000
      0.46250000	     -0.75499102	      0.26331771	     93.51413272	      0.43808151	      1.07876878	     -1.44189168	    -29.88370935	    -11.18839976	    -39.95414364	    -43.25453001	      0.00000000	     -0.00000000	      0.00000000	     -0.75493397	    -39.88159043	    -19.87226643	      0.00000000	     10.91900088	      2.35872889	     -8.55657858	     -9.66009921	     -0.00000000	      0.00000000	     -0.00000000	     -0.16860054	     -6.30988330	     18.86010253	      0.00000000	      0.00000000	     -0.00000000	      0.00000000
      0.46666667	     -1.16512847	      0.42020108	     94.10585010	      0.43593772	      1.07611944	     -1.45696049	    -29.89328635	    -11.68214634	    -39.95249505	    -44.92825564	     -0.00000000	      0.00000000	      0.00000000	     -0.78414599	    -39.87456874	    -19.87912908	      0.00000000	     10.08659773	      3.13674082	     -7.15315787	    -10.09092127	     -0.00000000	     -0.00000000	     -0.00000000	     -0.17611980	     -5.82635887	     18.14380765	     -0.00000000	      0.00000000	      0.00000000	      0.00000000
      0.47083333	     -1.63249723	      0.64181556	     94.66833020	      0.43380502	      1.07365356	     -1.47148892	    -29.90054165	    -12.26447716	    -39.95084609	    -46.71374339	     -0.00000000	      0.00000000	     -0.00000000	     -0.81530863	    -39.86889980	    -19.88310029	     -0.00000000	      9.16322924	      4.14032939	     -5.36313846	    -10.58552436	     -0.00000000	      0.00000000	     -0.00000000	     -0.18475225	     -4.57132429	     16.60255787	     -0.00000000	     -0.00000000	      0.00000000	      0.00000000
      0.47500000	     -2.24602210	      0.91751186	     95.20521507	      0.43147314	      1.07173962	     -1.48561806	    -29.90645351	    -13.02888725	    -39.94924661	    -48.53294707	     -0.00000000	     -0.00000000	      0.00000000	     -0.84705972	    -39.85899217	    -19.88637703	     -0.00000000	      8.22211005	      5.25960713	     -3.90186152	    -11.08842956	      0.00000000	      0.00000000	     -0.00000000	     -0.19352960	     -3.77882227	     14.99325434	      0.00000000	      0.00000000	      0.00000000	      0.00000000
      0.47916667	     -2.77491676	      1.25087416	     95.87541032	      0.42929524	      1.07022082	     -1.49921618	    -29.91099613	    -13.58863489	    -39.94719584	    -50.34282050	      0.00000000	     -0.00000000	      0.00000000	     -0.87864797	    -39.84776223	    -19.88889456	      0.00000000	      7.35842892	      6.17202395	     -2.75448202	    -11.69122480	      0.00000000	     -0.00000000	      0.00000000	     -0.20405037	     -3.43915581	     13.33917292	      0.00000000	      0.00000000	      0.00000000	      0.00000000
      0.48333333	     -3.32366555	      1.62385856	     96.51032582	      0.42754962	      1.06905303	     -1.51276132	    -29.91576579	    -14.12768513	    -39.94480299	    -52.09942878	     -0.00000000	      0.00000000	     -0.00000000	     -0.90930657	    -39.83291578	    -19.89150383	     -0.00000000	      6.48021549	      6.96151456	     -1.92513634	    -12.36582397	      0.00000000	     -0.00000000	      0.00000000	     -0.21582434	     -2.73194941	     11.45398478	     -0.00000000	      0.00000000	      0.00000000	     -0.00000000
      0.48750000	     -3.66898281	      2.03681398	     97.29021861	      0.42585745	      1.06808989	     -1.52605878	    -29.91940711	    -14.34418033	    -39.94215943	    -53.74904043	      0.00000000	      0.00000000	     -0.00000000	     -0.93809773	    -39.81624840	    -19.89293743	     -0.00000000	      5.56228997	      7.47265719	     -0.86713146	    -13.01955875	      0.00000000	     -0.00000000	      0.00000000	     -0.22723417	     -1.92131684	      9.82950899	      0.00000000	      0.00000000	      0.00000000	     -0.00000000
      0.49166667	     -3.99870821	      2.46029830	     98.12926102	      0.42422670	      1.06736372	     -1.53921540	    -29.92218916	    -14.45638909	    -39.93905584	    -55.28831753	      0.00000000	     -0.00000000	      0.00000000	     -0.96496318	    -39.79671881	    -19.89336199	      0.00000000	      4.48545859	      7.93482548	      0.66849481	    -13.46479550	     -0.00000000	      0.00000000	     -0.00000000	     -0.23500501	     -1.19028382	      8.92482877	     -0.00000000	      0.00000000	      0.00000000	     -0.00000000
      0.49583333	     -4.14848938	      2.92337611	     99.06624196	      0.42245596	      1.06676505	     -1.55225635	    -29.92462474	    -14.32168013	    -39.93626586	    -56.70526483	     -0.00000000	      0.00000000	      0.00000000	     -0.98969357	    -39.77621037	    -19.89240399	      0.00000000	      3.26533003	      8.18701822	      2.57189172	    -13.82097181	     -0.00000000	     -0.00000000	      0.00000000	     -0.24122146	     -0.38703336	      8.31438407	      0.00000000	     -0.00000000	     -0.00000000	      0.00000000
      0.50000000	     -4.22277049	      3.40596813	    100.00798603	      0.42061588	      1.06640892	     -1.56531583	    -29.92583705	    -14.08314077	    -39.93262786	    -57.97894657	      0.00000000	     -0.00000000	      0.00000000	     -1.01192351	    -39.75448319	    -19.89042596	     -0.00000000	      1.96382457	      8.29866552	      4.42745613	    -14.08023655	      0.00000000	      0.00000000	     -0.00000000	     -0.24574649	      0.51721159	      7.42110628	     -0.00000000	      0.00000000	     -0.00000000	     -0.00000000
